<!-- anthurium -->
<svg xmlns="http://www.w3.org/2000/svg" width="460" height="460">
  <path d="M 154.536 169.004 C 154.415 169.124 142.102 181.188 122.738 188.564 C 118.578 190.149 116.49 194.807 118.075 198.968 C 119.266 202.094 122.264 204.161 125.61 204.162 C 126.564 204.162 127.534 203.992 128.478 203.632 C 151.209 194.973 165.334 181.009 165.924 180.418 C 169.067 177.275 169.067 172.187 165.931 169.036 C 162.795 165.885 157.695 165.875 154.536 169.004 Z M 152.287 151.124 C 156.68 150.448 159.686 146.346 159.022 141.952 C 158.359 137.559 154.256 134.532 149.857 135.184 C 149.623 135.218 126.345 138.506 110.029 126.484 C 106.444 123.842 101.396 124.607 98.757 128.192 C 97.488 129.913 96.956 132.068 97.276 134.182 C 97.596 136.296 98.743 138.196 100.465 139.464 C 114.563 149.852 131.6 151.756 142.203 151.756 C 147.986 151.757 151.857 151.19 152.287 151.124 Z M 149.433 114.24 C 150.943 115.755 152.995 116.605 155.134 116.602 C 158.394 116.601 161.334 114.637 162.582 111.625 C 163.829 108.612 163.14 105.145 160.835 102.839 C 142.172 84.176 131.407 52.579 131.22 52.029 C 130.327 49.275 128.025 47.212 125.189 46.624 C 122.354 46.036 119.421 47.013 117.506 49.185 C 115.591 51.357 114.987 54.389 115.925 57.128 C 116.406 58.575 127.972 92.779 149.433 114.24 Z M 219.742 156.475 C 220.327 156.768 231.146 162.047 248.628 162.047 C 254.039 162.047 260.089 161.542 266.671 160.225 C 268.768 159.806 270.612 158.571 271.798 156.792 C 272.984 155.013 273.415 152.835 272.995 150.739 C 272.576 148.642 271.341 146.798 269.562 145.612 C 267.783 144.426 265.605 143.995 263.509 144.414 C 241.561 148.804 227.249 142.193 226.904 142.031 C 222.926 140.12 218.151 141.762 216.19 145.716 C 214.23 149.67 215.812 154.465 219.742 156.475 Z M 225.389 123.729 C 227.274 123.73 229.099 123.069 230.545 121.86 C 231.07 121.423 243.487 111.035 252.042 100.342 C 253.378 98.672 253.996 96.54 253.759 94.415 C 253.523 92.29 252.452 90.346 250.783 89.01 C 247.306 86.229 242.233 86.793 239.451 90.269 C 231.958 99.636 220.423 109.306 220.224 109.474 C 216.804 112.325 216.341 117.408 219.191 120.829 C 220.723 122.67 222.994 123.732 225.389 123.729 Z" fill="#1D5E36"></path>
  <path d="M 386.768 221.237 C 386.253 217.947 383.769 215.312 380.516 214.603 C 332.15 204.061 297.385 210.267 276.739 217.329 C 252.875 225.491 234.54 239.536 228.894 253.983 C 224.945 264.086 226.844 271.754 229.134 276.408 C 233.655 285.597 242.793 290.115 247.204 291.834 C 220.691 326.959 213.131 364.165 211.615 390.021 C 211.595 390.355 211.582 390.681 211.564 391.012 C 198.957 355.085 193.499 323.222 191.245 299.789 C 188.37 269.885 190.063 248.251 190.959 240.105 C 204.087 231.321 211.339 217.418 212.319 199.238 C 229.136 208.074 245.751 211.748 253.457 211.295 C 259.244 210.963 279.007 208.483 290.399 190.529 C 301.953 172.323 300.499 144.925 286.079 109.095 C 274.967 81.483 254.065 57.547 223.926 37.912 C 224.811 33.91 225.755 29.922 226.759 25.949 C 227.863 21.599 227.49 16.957 225.436 12.967 C 223.04 8.313 218.876 5.018 213.851 3.759 L 213.852 3.759 C 204.457 1.402 194.747 7.083 192.211 16.422 C 191.884 17.629 191.56 18.836 191.24 20.044 C 159.713 5.594 133.194 0.378 132 0.148 C 129.496 -0.335 126.91 0.397 125.03 2.12 C 122.81 4.153 70.688 52.824 72.916 131.382 C 74.319 181.067 88.661 218.756 113.303 237.506 C 124.7 246.178 138.087 250.58 152.718 250.58 C 159.05 250.58 165.616 249.754 172.352 248.094 C 172.94 247.947 173.527 247.794 174.111 247.633 C 173.347 259.154 172.941 277.463 175.136 300.697 C 178.297 334.148 187.669 384.003 213.837 438.645 C 214.638 440.317 220.275 451.572 222.35 455.45 C 223.448 457.506 225.382 458.986 227.654 459.507 C 229.926 460.029 232.312 459.541 234.197 458.17 C 237.506 455.791 238.351 451.186 236.431 447.59 L 236.357 447.453 C 232.379 439.994 229.809 431.866 228.774 423.476 C 226.055 401.481 225.196 358.057 250.432 315.833 C 252.233 321.935 255.768 327.492 261.029 332.424 C 263.845 335.064 268.116 337.84 274.077 338.643 C 276.816 339.011 279.913 338.962 283.388 338.292 C 303.22 334.464 325.897 311.763 341.429 293.395 C 359.531 271.984 376.601 246.213 386.02 226.079 C 386.723 224.568 387.033 222.883 386.768 221.237 Z M 209.494 19.342 C 209.638 19.342 209.784 19.36 209.928 19.396 L 209.929 19.396 C 210.523 19.545 210.855 19.922 211.026 20.212 C 211.204 20.508 211.382 20.993 211.225 21.609 C 202.828 54.553 195.277 103.334 191.027 152.097 C 190.844 154.2 188.976 155.778 186.871 155.623 C 185.826 155.548 184.855 155.051 184.183 154.247 C 183.517 153.46 183.198 152.436 183.3 151.409 C 187.936 104.331 198.979 52.995 207.768 20.65 C 207.985 19.876 208.691 19.341 209.494 19.342 Z M 168.496 232.436 C 150.84 236.788 135.557 234.176 123.066 224.672 C 102.381 208.932 90.295 175.638 89.032 130.923 C 87.307 70.063 122.652 27.945 133.073 16.889 C 141.803 18.948 163.32 24.683 187.208 35.945 C 179.412 68.084 171.138 110.395 167.255 149.826 C 166.724 155.215 168.352 160.469 171.84 164.618 C 175.337 168.778 180.246 171.294 185.665 171.7 C 186.167 171.737 186.665 171.755 187.16 171.755 C 197.401 171.755 206.188 163.847 207.09 153.495 C 210.083 119.148 214.905 83.864 220.418 54.988 C 244.882 72.055 261.92 92.247 271.121 115.113 C 283.317 145.418 285.276 168.508 276.785 181.889 C 269.318 193.658 255.272 195.038 252.525 195.196 C 247.261 195.49 226.412 190.828 208.417 177.964 C 205.82 176.107 202.371 175.958 199.623 177.584 C 196.875 179.21 195.346 182.304 195.724 185.475 C 198.225 206.484 192.778 220.868 179.537 228.225 C 176.324 230.008 172.612 231.424 168.496 232.436 Z M 280.33 322.459 C 275.656 323.361 273.454 321.972 272.055 320.661 C 267.421 316.316 265.163 311.539 265.153 306.056 C 265.128 293.628 276.694 279.967 281.141 275.764 C 282.7 274.301 283.615 272.279 283.684 270.142 C 283.753 268.005 282.969 265.928 281.507 264.368 C 280.24 263.013 278.544 262.139 276.706 261.894 C 274.302 261.567 271.88 262.341 270.112 264.002 C 269.897 264.203 264.794 269.017 259.731 276.327 C 259.032 277.336 258.356 278.36 257.703 279.399 C 256.717 278.344 255.463 277.575 254.076 277.173 C 252.449 276.699 245.904 273.971 243.6 269.29 C 242.334 266.715 242.433 263.627 243.91 259.854 C 247.111 251.663 260.117 240.055 281.956 232.585 C 299.197 226.689 327.471 221.488 366.815 228.343 C 346.701 265.645 304.325 317.828 280.33 322.459 Z" fill="#1D5E36"></path>
</svg>