<svg width="24" height="24" viewBox="0 0 24 24" fill="none" xmlns="http://www.w3.org/2000/svg">
<path d="M12 0.23999C5.50559 0.23999 0.23999 5.50559 0.23999 12C0.23999 18.4968 5.50559 23.76 12 23.76C18.4944 23.76 23.76 18.4968 23.76 12C23.76 5.50559 18.4944 0.23999 12 0.23999ZM12.6744 5.00879C13.2072 4.38239 14.1096 3.91919 14.8536 3.88799C14.9496 4.75439 14.5992 5.62559 14.0832 6.24959C13.5648 6.87359 12.72 7.36079 11.8872 7.29599C11.7768 6.44879 12.1944 5.56319 12.6744 5.00879ZM16.908 16.8528C16.2912 17.7552 15.6504 18.6528 14.6424 18.672C13.6512 18.6912 13.332 18.084 12.1992 18.084C11.0664 18.084 10.7112 18.6528 9.77279 18.6912C8.80079 18.7272 8.05919 17.7192 7.43759 16.8192C6.16559 14.9808 5.19359 11.6256 6.49919 9.35999C7.14479 8.23439 8.30399 7.52399 9.56159 7.50479C10.5192 7.48799 11.4216 8.15039 12.0048 8.15039C12.5904 8.15039 13.6872 7.35359 14.8392 7.47119C15.3216 7.49039 16.6752 7.66559 17.5464 8.93759C17.4768 8.98079 15.9288 9.88079 15.948 11.7552C15.9696 13.9944 17.9112 14.7384 17.9352 14.7504C17.916 14.7984 17.6232 15.8088 16.908 16.8528Z" fill="#EEEEEE"/>
</svg>
