<!-- bamboo -->
<svg xmlns="http://www.w3.org/2000/svg" width="460" height="460">
  <path d="M 341.995 74.884 C 363.366 63.081 377.876 40.32 377.876 14.228 C 377.876 9.482 374.029 5.634 369.283 5.634 C 333.18 5.634 303.457 33.41 300.323 68.712 L 290.356 72.247 L 290.356 58.634 C 290.356 55.605 288.76 52.799 286.157 51.25 C 283.553 49.7 280.326 49.637 277.663 51.082 L 250.368 65.902 C 247.6 67.406 245.876 70.304 245.876 73.454 L 245.876 150.784 C 242.492 151.251 239.565 153.718 238.699 157.238 C 238.154 159.451 238.511 161.79 239.691 163.74 C 240.871 165.69 242.777 167.092 244.99 167.636 L 245.876 167.855 L 245.876 260.086 L 244.99 260.304 C 242.777 260.849 240.871 262.25 239.691 264.2 C 238.511 266.15 238.154 268.489 238.699 270.702 C 239.565 274.224 242.49 276.692 245.876 277.158 L 245.876 344.63 C 242.492 345.097 239.565 347.563 238.699 351.083 C 238.154 353.296 238.511 355.635 239.691 357.585 C 240.871 359.535 242.777 360.937 244.99 361.481 L 245.876 361.7 L 245.876 442.792 L 231.218 442.792 L 231.218 349.213 L 232.348 348.899 C 236.274 347.808 238.893 344.109 238.62 340.043 C 238.347 335.978 235.255 332.663 231.218 332.107 L 231.218 253.876 C 234.616 253.411 237.412 250.969 238.33 247.664 C 239.598 243.091 236.92 238.355 232.348 237.086 L 231.218 236.773 L 231.218 130.67 L 232.348 130.357 C 236.274 129.266 238.893 125.567 238.62 121.501 C 238.347 117.435 235.255 114.12 231.218 113.564 L 231.218 25.302 C 231.218 22.31 229.662 19.534 227.111 17.972 L 199.814 1.264 C 197.162 -0.36 193.84 -0.424 191.127 1.096 C 188.414 2.616 186.734 5.483 186.734 8.592 L 186.734 125.178 L 185.603 125.491 C 181.677 126.582 179.057 130.28 179.331 134.346 C 179.604 138.412 182.697 141.726 186.734 142.281 L 186.734 225.154 C 183.335 225.621 180.539 228.064 179.621 231.369 C 178.353 235.942 181.031 240.678 185.603 241.947 L 186.734 242.26 L 186.734 343.718 L 185.603 344.031 C 181.677 345.122 179.057 348.821 179.331 352.887 C 179.604 356.952 182.697 360.267 186.734 360.821 L 186.734 442.788 L 90.695 442.788 C 85.949 442.788 82.101 446.635 82.101 451.381 C 82.101 456.127 85.949 459.975 90.695 459.975 L 346.967 459.975 C 351.713 459.975 355.561 456.127 355.561 451.381 C 355.561 446.635 351.713 442.788 346.967 442.788 L 290.355 442.788 L 290.355 372.017 C 293.741 371.551 296.665 369.083 297.532 365.561 C 298.077 363.348 297.72 361.009 296.54 359.059 C 295.36 357.109 293.454 355.708 291.241 355.163 L 290.355 354.945 L 290.355 266.831 L 291.241 266.613 C 293.454 266.068 295.36 264.667 296.54 262.717 C 297.72 260.767 298.077 258.428 297.532 256.215 C 296.666 252.695 293.74 250.228 290.355 249.761 L 290.355 178.172 C 293.741 177.706 296.665 175.238 297.532 171.716 C 298.077 169.503 297.72 167.164 296.54 165.214 C 295.36 163.264 293.454 161.863 291.241 161.318 L 290.355 161.1 L 290.355 90.483 L 301.059 86.685 C 306.679 119.264 335.123 144.133 369.282 144.133 C 374.028 144.133 377.875 140.285 377.875 135.539 C 377.876 109.448 363.366 86.687 341.995 74.884 Z M 263.06 172.085 L 273.168 174.574 L 273.168 253.367 L 263.06 255.855 Z M 214.029 232.001 L 203.921 229.195 L 203.921 138.245 L 214.029 135.439 Z M 203.921 23.929 L 214.029 30.117 L 214.029 117.603 L 203.921 120.409 Z M 203.921 247.032 L 214.029 249.838 L 214.029 336.146 L 203.921 338.951 Z M 203.921 442.791 L 203.921 356.787 L 214.029 353.982 L 214.029 442.791 Z M 263.06 442.791 L 263.06 365.929 L 273.168 368.418 L 273.168 442.791 Z M 273.168 350.717 L 263.06 348.229 L 263.06 273.553 L 273.168 271.065 Z M 263.06 154.386 L 263.06 78.568 L 273.168 73.079 L 273.168 156.874 Z M 359.829 23.681 C 355.935 44.825 339.222 61.537 318.079 65.431 C 321.974 44.287 338.686 27.576 359.829 23.681 Z M 318.079 84.338 C 339.222 88.232 355.935 104.944 359.829 126.087 C 338.686 122.192 321.974 105.481 318.079 84.338 Z" fill="#1D5E36"></path>
</svg>