<svg xmlns="http://www.w3.org/2000/svg" width="24" height="24"><path d="M 10 13 C 10.869 14.162 12.2 14.889 13.647 14.992 C 15.094 15.096 16.514 14.566 17.54 13.54 L 20.54 10.54 C 22.435 8.578 22.408 5.46 20.479 3.531 C 18.55 1.602 15.432 1.575 13.47 3.47 L 11.75 5.18" fill="transparent" stroke-width="2" stroke="#eee" stroke-linecap="round" stroke-linejoin="round"></path><path d="M 14 11 C 13.131 9.838 11.8 9.111 10.353 9.008 C 8.906 8.904 7.486 9.434 6.46 10.46 L 3.46 13.46 C 1.565 15.422 1.592 18.54 3.521 20.469 C 5.45 22.398 8.568 22.425 10.53 20.53 L 12.24 18.82" fill="transparent" stroke-width="2" stroke="#eee" stroke-linecap="round" stroke-linejoin="round"></path></svg>