<!-- flower -->
<svg xmlns="http://www.w3.org/2000/svg" width="460" height="460">
  <path d="M 409.236 214.617 C 399.016 203.758 398.346 192.886 397.501 179.12 C 396.707 166.212 395.785 151.235 386.517 134.342 L 403.513 131.781 C 407.045 131.25 409.912 128.646 410.779 125.18 C 411.645 121.715 410.342 118.068 407.475 115.937 C 397.324 108.384 380.354 83.673 360.919 48.141 C 351.881 31.61 334.164 20.973 314.682 20.38 C 302.588 20.012 291.413 22.684 281.276 28.317 C 271.178 11.225 251.429 0 229.786 0 C 208.135 0 188.389 11.226 178.298 28.321 C 168.146 22.684 156.964 20.011 144.904 20.38 C 125.427 20.973 107.706 31.608 98.653 48.139 C 79.21 83.684 62.243 108.393 52.1 115.935 C 49.233 118.066 47.93 121.712 48.796 125.178 C 49.661 128.643 52.527 131.248 56.059 131.781 L 73.061 134.343 C 63.793 151.235 62.87 166.212 62.077 179.12 C 61.231 192.886 60.562 203.758 50.342 214.617 C 47.752 217.372 47.199 221.468 48.966 224.811 C 50.732 228.154 54.428 230.005 58.163 229.418 C 88.54 224.623 117.34 214.436 141.452 199.961 C 155.766 191.368 167.904 181.479 177.593 170.656 C 174.848 207.783 189.368 249.049 220.945 293.724 L 220.945 450.728 C 220.945 455.614 224.905 459.574 229.791 459.574 C 234.676 459.574 238.637 455.614 238.637 450.728 L 238.637 420.122 C 327.352 400.458 339.043 367.768 351.385 333.208 C 357.554 315.935 363.934 298.073 381.308 280.202 C 383.897 277.539 384.547 273.542 382.934 270.196 C 381.322 266.85 377.791 264.867 374.094 265.233 C 296.928 272.864 259.34 312.516 241.398 344.435 C 240.446 346.135 239.526 347.853 238.638 349.588 L 238.638 293.724 C 270.215 249.049 284.734 207.783 281.988 170.655 C 291.677 181.478 303.815 191.367 318.13 199.961 C 342.242 214.435 371.043 224.622 401.419 229.418 C 405.155 230.006 408.851 228.156 410.62 224.813 C 412.384 221.468 411.828 217.371 409.236 214.617 Z M 256.817 353.105 C 276.767 317.615 309.347 295.144 353.843 286.114 C 344.286 300.475 339.289 314.468 334.721 327.258 C 323.41 358.926 314.362 384.261 239.909 401.698 C 241.742 390.367 246.171 372.044 256.817 353.105 Z M 314.143 38.064 C 327.381 38.467 339.356 45.58 345.397 56.629 C 356.349 76.653 370.672 100.872 383.769 116.864 L 375.281 118.143 C 371.984 114.228 368.195 110.228 363.79 106.139 C 335.23 79.619 308.365 79.206 290.855 83.533 C 286.657 84.572 282.646 86.261 278.968 88.536 C 275.349 81.877 270.418 76.02 264.474 71.319 C 268.651 63.639 274.711 54.923 283.025 48.36 C 292.109 41.174 302.581 37.708 314.143 38.064 Z M 229.789 110.974 C 218.644 110.974 208.443 114.35 200.193 120.336 C 199.724 115.101 198.278 110 195.93 105.297 C 195.331 104.108 194.676 102.948 193.967 101.821 C 199.435 86.993 213.796 76.846 229.786 76.846 C 245.769 76.846 260.133 86.99 265.614 101.816 C 264.903 102.944 264.247 104.106 263.648 105.297 C 261.299 110 259.853 115.101 259.385 120.337 C 251.134 114.35 240.933 110.974 229.789 110.974 Z M 229.786 17.692 C 245.86 17.692 260.36 26.193 266.944 38.918 C 259.124 46.334 253.276 54.941 249.063 62.634 C 242.895 60.337 236.367 59.159 229.786 59.154 C 223.206 59.158 216.679 60.336 210.512 62.632 C 206.304 54.939 200.458 46.331 192.638 38.915 C 199.211 26.192 213.707 17.692 229.786 17.692 Z M 75.803 116.865 C 88.896 100.876 103.219 76.657 114.172 56.633 C 120.223 45.583 132.204 38.467 145.443 38.064 C 156.999 37.711 167.461 41.176 176.564 48.365 C 184.874 54.924 190.927 63.637 195.099 71.315 C 189.155 76.017 184.226 81.875 180.608 88.535 C 176.93 86.259 172.919 84.571 168.72 83.532 C 151.212 79.206 124.349 79.617 95.786 106.138 C 91.382 110.227 87.593 114.228 84.296 118.143 Z M 132.345 184.792 C 115.694 194.787 95.877 202.763 75.118 207.934 C 78.603 198.616 79.174 189.318 79.735 180.207 C 80.858 161.948 82.019 143.068 107.826 119.105 C 122.124 105.828 136.895 99.15 151.891 99.15 C 156.07 99.15 160.269 99.669 164.477 100.709 C 171.379 102.413 176.929 106.852 180.105 113.206 C 183.315 119.631 183.529 127.15 180.688 133.835 C 172.502 153.1 155.785 170.72 132.345 184.792 Z M 229.789 275.369 C 198.752 228.665 188.385 186.999 198.977 151.394 C 203.962 134.637 218.163 128.667 229.789 128.667 C 241.415 128.667 255.614 134.637 260.599 151.394 C 271.193 187 260.824 228.666 229.789 275.369 Z M 327.232 184.792 C 303.79 170.72 287.074 153.1 278.89 133.836 C 276.05 127.151 276.263 119.632 279.474 113.206 C 282.649 106.852 288.198 102.413 295.1 100.709 C 299.31 99.668 303.506 99.15 307.688 99.15 C 322.682 99.15 337.456 105.829 351.752 119.105 C 377.559 143.068 378.72 161.948 379.842 180.207 C 380.403 189.318 380.975 198.616 384.459 207.934 C 363.699 202.763 343.882 194.788 327.232 184.792 Z" fill="#1D5E36"></path>
</svg>