<svg xmlns="http://www.w3.org/2000/svg" width="24" height="24"><path d="M 7 22 C 4.239 22 2 19.761 2 17 L 2 7 C 2 4.239 4.239 2 7 2 L 17 2 C 19.761 2 22 4.239 22 7 L 22 17 C 22 19.761 19.761 22 17 22 Z" fill="transparent" stroke-width="2" stroke="#eee" stroke-linecap="round" stroke-linejoin="round"></path><path d="M 16 11.37 C 16.253 13.077 15.383 14.754 13.842 15.53 C 12.3 16.306 10.435 16.005 9.215 14.785 C 7.995 13.565 7.694 11.7 8.47 10.158 C 9.246 8.617 10.923 7.747 12.63 8 C 14.373 8.258 15.742 9.627 16 11.37 Z M 17.5 6.5 L 17.51 6.5" fill="transparent" stroke-width="2" stroke="#eee" stroke-linecap="round" stroke-linejoin="round"></path></svg>