<!-- lotus -->
<svg xmlns="http://www.w3.org/2000/svg" width="460" height="460">
  <path d="M 445.925 214.852 C 433.837 207.147 413.231 202.478 392.411 203.18 C 400.579 183.609 406.734 164.607 410.057 148.502 C 415.046 124.31 413.117 109.731 404.156 103.929 C 401.547 102.239 397.166 100.591 391.141 102.332 C 375.535 106.839 356.476 133.509 341.316 161.302 C 333.228 125.197 317.863 93.34 293.964 93.34 C 293.195 93.34 292.394 93.38 291.571 93.458 C 284.225 75.593 273.234 65.516 260.745 65.516 C 259.023 65.516 257.327 65.709 255.664 66.09 C 248.996 56.151 239.939 50.587 230.019 50.587 C 220.099 50.587 211.043 56.152 204.374 66.091 C 202.707 65.708 201.001 65.515 199.29 65.516 C 186.802 65.516 175.81 75.593 168.464 93.458 C 167.669 93.381 166.871 93.342 166.072 93.34 C 142.173 93.34 126.808 125.197 118.72 161.303 C 103.56 133.51 84.503 106.84 68.897 102.332 C 62.865 100.59 58.491 102.239 55.881 103.929 C 46.919 109.73 44.99 124.31 49.98 148.502 C 53.302 164.607 59.458 183.609 67.626 203.18 C 46.807 202.478 26.2 207.147 14.112 214.852 C 2.448 222.286 0 230.926 0 236.864 L 0 238.002 C 0 260.814 17.315 282.046 48.754 297.783 C 59.358 303.091 71.298 307.642 84.22 311.367 C 79.216 327.172 80.441 340.512 82.361 353.833 C 84.653 369.656 97.465 397.403 98.01 398.578 C 99.316 401.393 102.062 403.266 105.16 403.454 C 105.806 403.494 113.756 403.96 123.492 403.96 C 133.228 403.96 144.749 403.493 152.532 401.66 C 165.207 398.68 178.567 394.822 191.682 384.145 C 203.883 395.195 224.705 407.668 225.692 408.256 C 228.357 409.848 231.68 409.848 234.345 408.256 C 235.329 407.668 256.085 395.233 268.293 384.199 C 275.94 390.558 286.738 396.779 307.5 401.66 C 315.287 403.494 326.808 403.961 336.545 403.961 C 346.278 403.961 354.229 403.494 354.875 403.455 C 357.973 403.268 360.719 401.395 362.025 398.579 C 362.569 397.405 375.382 369.658 377.675 353.827 C 379.592 340.512 380.817 327.171 375.814 311.368 C 388.736 307.643 400.675 303.091 411.279 297.784 C 442.72 282.046 460.034 260.815 460.034 238.003 L 460.034 236.865 C 460.037 230.926 457.589 222.286 445.925 214.852 Z M 376.04 137.753 C 385.889 124.621 392.345 119.976 395.077 118.806 C 396.072 121.791 396.854 130.428 392.825 148.278 C 389.028 165.106 382.043 185.237 373.015 205.497 C 369.283 206.29 365.605 207.323 362.004 208.587 C 358.682 201.612 353.319 195.76 346.394 191.722 C 346.298 190.88 346.197 190.038 346.094 189.193 C 355.504 169.216 366.087 151.021 376.04 137.753 Z M 262.725 313.511 L 261.327 313.511 C 250.094 313.511 243.081 306.241 240.262 299.436 C 237.443 292.632 237.262 282.531 245.206 274.589 L 310.04 209.755 C 314.946 204.849 320.675 203.043 325.942 203.043 C 329.202 203.043 332.286 203.735 334.887 204.812 C 341.692 207.631 348.962 214.644 348.962 225.877 L 348.962 227.275 C 348.96 274.826 310.275 313.511 262.725 313.511 Z M 233.261 262.646 C 232.108 263.809 231.026 265.039 230.018 266.329 C 229.01 265.039 227.928 263.809 226.776 262.646 L 178.633 214.503 C 180.776 181.762 188.85 151.964 200.977 132.296 C 209.742 118.067 220.056 110.23 230.018 110.23 C 239.98 110.23 250.294 118.066 259.06 132.299 C 271.184 151.963 279.258 181.761 281.403 214.503 Z M 111.077 227.275 L 111.077 225.877 C 111.077 214.644 118.347 207.631 125.152 204.812 C 127.99 203.646 131.029 203.045 134.097 203.043 C 139.364 203.043 145.093 204.85 149.999 209.755 L 214.833 274.589 C 222.776 282.532 222.594 292.633 219.776 299.437 C 216.957 306.242 209.944 313.512 198.712 313.512 L 197.313 313.512 C 149.761 313.511 111.077 274.826 111.077 227.275 Z M 314.462 132.37 C 320.806 146.174 325.744 164.994 328.675 186.211 C 317.493 185.415 306.478 189.43 298.096 197.812 L 296.948 198.959 C 293.686 171.105 286.403 146.349 275.858 127.554 C 281.737 116.495 288.225 110.23 293.966 110.23 C 300.429 110.231 308.091 118.507 314.462 132.37 Z M 276.06 100.143 C 272.536 102.968 268.922 106.874 265.361 112.194 C 259.586 105.362 253.33 100.332 246.726 97.194 C 251.418 87.042 256.866 82.407 260.745 82.407 C 265.036 82.407 271.117 87.95 276.06 100.143 Z M 230.02 67.479 C 233.91 67.479 237.902 70.187 241.26 74.944 C 236.963 79.525 233.158 85.694 230.02 93.275 C 226.881 85.695 223.077 79.526 218.781 74.945 C 222.136 70.187 226.128 67.479 230.02 67.479 Z M 199.291 82.407 C 203.171 82.407 208.617 87.043 213.311 97.194 C 206.707 100.332 200.451 105.362 194.675 112.194 C 191.115 106.874 187.502 102.967 183.977 100.143 C 188.92 87.95 195.001 82.407 199.291 82.407 Z M 145.575 132.37 C 151.946 118.507 159.608 110.231 166.072 110.231 C 171.812 110.231 178.302 116.498 184.182 127.56 C 173.791 146.163 166.409 171.322 163.111 198.982 L 161.942 197.813 C 153.559 189.43 142.544 185.415 131.362 186.211 C 134.293 164.993 139.231 146.173 145.575 132.37 Z M 67.211 148.277 C 63.182 130.427 63.964 121.79 64.958 118.805 C 67.691 119.975 74.146 124.62 83.995 137.752 C 93.948 151.02 104.532 169.217 113.942 189.192 C 113.839 190.037 113.738 190.879 113.642 191.72 C 106.716 195.758 101.354 201.61 98.032 208.585 C 94.431 207.321 90.753 206.288 87.02 205.495 C 77.992 185.236 71.009 165.105 67.211 148.277 Z M 16.89 238.001 L 16.89 236.863 C 16.89 233.597 20.838 230.593 23.191 229.093 C 38.008 219.649 71.238 216.269 94.212 225.175 C 94.208 225.41 94.187 225.64 94.187 225.876 L 94.187 227.274 C 94.187 257.267 107.061 284.307 127.569 303.168 C 64.192 294.34 16.89 267.694 16.89 238.001 Z M 148.664 385.219 C 139.526 387.371 121.609 387.227 111.252 386.835 C 107.104 377.341 100.425 360.722 99.077 351.418 C 97.086 337.594 96.764 327.168 100.638 315.537 C 118.749 319.55 138.339 322.05 158.617 322.859 C 159.602 323.26 160.594 323.649 161.594 324.02 C 163.382 346.409 170.954 360.156 180.247 371.674 C 171.205 378.838 161.713 382.151 148.664 385.219 Z M 230.018 391.094 C 221.244 385.588 206.366 375.621 200.013 368.683 C 189.604 357.329 181.83 347.512 179.11 328.792 C 185.118 329.865 191.21 330.403 197.313 330.401 L 198.711 330.401 C 211.39 330.401 222.665 324.742 230.018 315.167 C 237.371 324.742 248.646 330.401 261.326 330.401 L 262.724 330.401 C 268.933 330.401 275.016 329.849 280.926 328.793 C 278.206 347.514 270.431 357.33 260.021 368.687 C 253.681 375.61 238.796 385.583 230.018 391.094 Z M 360.961 351.412 C 359.615 360.706 352.931 377.336 348.782 386.836 C 338.434 387.23 320.526 387.374 311.369 385.218 C 298.322 382.151 288.829 378.837 279.789 371.674 C 289.083 360.155 296.653 346.409 298.442 324.02 C 299.442 323.649 300.434 323.26 301.419 322.859 C 321.697 322.051 341.288 319.55 359.399 315.537 C 363.273 327.167 362.95 337.593 360.961 351.412 Z M 443.147 238.001 C 443.147 267.694 395.844 294.34 332.468 303.169 C 352.976 284.308 365.85 257.268 365.85 227.275 L 365.85 225.877 C 365.85 225.641 365.829 225.411 365.825 225.176 C 388.803 216.269 422.031 219.65 436.846 229.093 C 439.199 230.593 443.147 233.597 443.147 236.863 Z" fill="#1d5e36"></path>
</svg>