<svg xmlns="http://www.w3.org/2000/svg" width="24" height="24"><path d="M 12 0 C 5.373 0 0 5.373 0 12 C 0 18.627 5.373 24 12 24 C 18.627 24 24 18.627 24 12 C 24 5.373 18.627 0 12 0 Z M 5.583 14.583 C 5.209 14.245 4.997 13.764 5 13.26 C 5 12.728 5.229 12.257 5.583 11.937 Z M 6.75 15 C 6.538 15 6.427 15.003 6.167 14.92 L 6.167 11.602 C 6.353 11.533 6.553 11.509 6.75 11.531 Z M 7.917 15 L 7.333 15 L 7.333 11.695 L 7.513 11.8 C 7.593 11.472 7.735 11.172 7.917 10.905 Z M 9.083 15 L 8.5 15 L 8.5 10.294 C 8.68 10.16 8.873 10.044 9.083 9.964 Z M 10.25 15 L 9.667 15 L 9.667 9.833 C 9.887 9.81 9.953 9.793 10.25 9.838 Z M 11.417 15 L 10.833 15 L 10.833 10.013 L 11.055 10.12 C 11.159 9.939 11.283 9.774 11.417 9.62 Z M 17.302 15 L 12 15 L 12 9.096 C 12.472 8.765 13.034 8.587 13.611 8.584 C 15.194 8.584 16.477 9.891 16.595 11.546 C 17.735 10.988 19 11.886 19 13.188 C 19 14.188 18.239 15 17.302 15 Z" fill="#0d5c3e"></path></svg>