<!-- spotify -->
<svg xmlns="http://www.w3.org/2000/svg" width="168" height="168">
  <path d="M 83.996 0.277 C 37.747 0.277 0.253 37.77 0.253 84.019 C 0.253 130.27 37.747 167.76 83.996 167.76 C 130.25 167.76 167.74 130.27 167.74 84.019 C 167.74 37.773 130.25 0.281 83.995 0.281 Z M 122.4 121.057 C 121.678 122.24 120.516 123.087 119.169 123.411 C 117.822 123.736 116.401 123.511 115.22 122.787 C 95.558 110.777 70.806 108.057 41.656 114.717 C 38.845 115.356 36.048 113.597 35.407 110.787 C 35.097 109.437 35.337 108.02 36.073 106.848 C 36.81 105.675 37.983 104.844 39.333 104.537 C 71.233 97.246 98.596 100.387 120.67 113.877 C 123.13 115.387 123.91 118.597 122.4 121.057 Z M 132.65 98.252 C 130.76 101.327 126.74 102.297 123.67 100.407 C 101.16 86.568 66.847 82.561 40.222 90.643 C 36.769 91.686 33.122 89.74 32.074 86.293 C 31.033 82.843 32.98 79.2 36.428 78.15 C 66.841 68.922 104.65 73.392 130.5 89.277 C 133.57 91.167 134.54 95.187 132.65 98.253 Z M 133.53 74.508 C 106.54 58.477 62.01 57.003 36.241 64.824 C 32.103 66.079 27.727 63.743 26.473 59.605 C 25.217 55.465 27.555 51.091 31.694 49.834 C 61.275 40.854 110.45 42.589 141.524 61.036 C 143.313 62.094 144.607 63.82 145.121 65.834 C 145.635 67.848 145.327 69.983 144.264 71.769 C 142.064 75.491 137.244 76.718 133.534 74.508 Z" fill="#eee"></path>
</svg>